<svg id="a-0" xmlns="http://www.w3.org/2000/svg" viewBox="0 0 692.14 90.98"><defs><style>.cls-1{fill:#ba3b0a;}</style></defs><g id="tight-bounds"><g id="text-0"><path class="cls-1" d="M151.77,539.51V460.56h11.87v78.95Zm88.65-78.95h11.87V543.1a83.22,83.22,0,0,0-5.88-6.31l-10-10q-5.67-5.67-12-11.87t-12-11.83q-5.67-5.6-9.91-10t-5.66-6.25h0L194.68,484l.32,3.49v52.05H183V456.86c.79,1,2.12,2.46,4,4.35s4,4.08,6.53,6.58,5.27,5.22,8.28,8.12l9.15,8.82q4.63,4.47,9.15,8.76c3,2.87,5.77,5.55,8.27,8s4.68,4.65,6.49,6.54a54.7,54.7,0,0,1,3.81,4.25h0l2.07,3-.32-3.7Zm21.78,0H274l2.5,6q1.74,4.2,4,9.54t4.68,11.33q2.46,6,4.64,11.32t3.92,9.52l2.5,6.05h0c.08.15.26.66.55,1.53a21.61,21.61,0,0,1,.65,2.29h0l1.09-3.82,2.5-6.05q1.76-4.19,3.92-9.52t4.62-11.32q2.46-6,4.69-11.33t4-9.54l2.51-6h11.76c-.44,1-1.22,2.84-2.36,5.49s-2.47,5.87-4.07,9.64-3.36,7.92-5.29,12.42-3.88,9.07-5.88,13.72L309,515.55q-2.88,6.75-5.23,12.42t-4,9.62c-1.12,2.66-1.89,4.5-2.33,5.51h0Zm133.49,78.95H342.32V460.56h51.84v10.78H354.3v23.09h35.51v11H354.3v23.09h41.39Zm25.81,0h-12V460.56h21.56a37.72,37.72,0,0,1,11.39,1.63,25.29,25.29,0,0,1,8.93,4.86,21.74,21.74,0,0,1,5.81,7.82,25.82,25.82,0,0,1,2.07,10.63h0a31.89,31.89,0,0,1-.65,6.46,26,26,0,0,1-2.11,6.21,24.67,24.67,0,0,1-3.77,5.56A19.91,19.91,0,0,1,447.2,508h0q4.35,6.85,9.47,15.18T467,539.51H452.75q-2.17-3.37-4.53-7.08t-4.66-7.36q-2.35-3.63-4.6-7.19t-4.18-6.57H421.5Zm0-67.84v28.42h10.78a16.21,16.21,0,0,0,7.29-1.48,13.28,13.28,0,0,0,4.64-3.64,13.66,13.66,0,0,0,2.38-4.68,16.68,16.68,0,0,0,.71-4.58h0a16.18,16.18,0,0,0-.71-4.53,12.85,12.85,0,0,0-2.44-4.57,13.84,13.84,0,0,0-4.64-3.53,16.1,16.1,0,0,0-7.12-1.41H421.5Zm49.33-11.11h51.29v11.32H502.19v67.63H490.32V471.88H470.83Zm110.53,4.35h0l-4.25,9.7a70.31,70.31,0,0,0-8.88-2.62,39.08,39.08,0,0,0-8.43-1h0q-6.87,0-11,2.83a8.49,8.49,0,0,0-4.07,7.19h0a7.07,7.07,0,0,0,2.94,5.93,32.12,32.12,0,0,0,7.3,4q4.35,1.81,9.47,3.6a44.38,44.38,0,0,1,9.48,4.64,25.74,25.74,0,0,1,7.29,7.12q2.94,4.31,2.94,11.06h0a22.44,22.44,0,0,1-1.91,9.41,19.76,19.76,0,0,1-5.67,7.26,26.28,26.28,0,0,1-9.36,4.68,47,47,0,0,1-13.11,1.63h0a53,53,0,0,1-8.67-.65,46.21,46.21,0,0,1-7-1.7,39,39,0,0,1-5.45-2.22q-2.32-1.2-4-2.18h0l5.23-10.35a42.68,42.68,0,0,0,9.69,4,35.5,35.5,0,0,0,9.69,1.53h0a32.35,32.35,0,0,0,5.38-.55,24,24,0,0,0,6.16-1.91,15.86,15.86,0,0,0,5.06-3.64,8.13,8.13,0,0,0,2.13-5.77h0a8.68,8.68,0,0,0-1.7-5.4,15.76,15.76,0,0,0-4.46-3.92,39.56,39.56,0,0,0-6.32-3q-3.53-1.35-7.23-2.81t-7.25-3.12a28,28,0,0,1-6.32-4,19,19,0,0,1-4.46-5.45,15.39,15.39,0,0,1-1.68-7.45h0a20.53,20.53,0,0,1,1.63-8,20.2,20.2,0,0,1,4.9-7,24.74,24.74,0,0,1,8.11-4.9,31.6,31.6,0,0,1,11.28-1.85h0a44,44,0,0,1,7.66.66c2.52.43,4.79.92,6.82,1.45s3.75,1.09,5.16,1.59S580.93,464.7,581.36,464.91Zm76.21-4.35-29.08,52.92v26h-12v-26c-.5-.8-1.5-2.54-3-5.22s-3.24-5.87-5.23-9.54-4.14-7.56-6.42-11.7-4.44-8-6.43-11.72-3.74-6.83-5.22-9.52-2.5-4.42-3-5.22h13.5q1,1.63,3.49,6.25t5.55,10.45q3,5.83,6.21,11.76t5.34,10.2h0l1.19,3.59a15.37,15.37,0,0,0,.77-1.81c.21-.61.43-1.2.65-1.78h0q2.28-4.25,5.34-10.2l6-11.76q3-5.81,5.45-10.45t3.41-6.25h13.4Zm52.82,4.35h0l-4.25,9.7a71.16,71.16,0,0,0-8.87-2.62,39.19,39.19,0,0,0-8.45-1h0q-6.86,0-10.93,2.83A8.47,8.47,0,0,0,673.8,481h0a7.07,7.07,0,0,0,2.94,5.93,32.25,32.25,0,0,0,7.29,4c2.91,1.21,6.06,2.41,9.48,3.6a44.07,44.07,0,0,1,9.47,4.64,25.78,25.78,0,0,1,7.3,7.12q2.94,4.31,2.94,11.06h0a22.44,22.44,0,0,1-1.9,9.41,19.89,19.89,0,0,1-5.68,7.26,26.31,26.31,0,0,1-9.35,4.68,47.17,47.17,0,0,1-13.13,1.63h0a52.73,52.73,0,0,1-8.65-.65,45.92,45.92,0,0,1-7-1.7,37.35,37.35,0,0,1-5.44-2.22q-2.36-1.2-4-2.18h0l5.23-10.35a43.07,43.07,0,0,0,9.69,4,35.51,35.51,0,0,0,9.7,1.53h0a32.77,32.77,0,0,0,5.4-.55,24,24,0,0,0,6.14-1.91,16,16,0,0,0,5.07-3.64,8.17,8.17,0,0,0,2.12-5.77h0a8.73,8.73,0,0,0-1.68-5.4,16.08,16.08,0,0,0-4.47-3.92,40.28,40.28,0,0,0-6.31-3q-3.56-1.35-7.25-2.81t-7.24-3.12a27.27,27.27,0,0,1-6.31-4,18.53,18.53,0,0,1-4.47-5.45,15.27,15.27,0,0,1-1.7-7.45h0a20.54,20.54,0,0,1,1.64-8,20.07,20.07,0,0,1,4.9-7,24.69,24.69,0,0,1,8.12-4.9A31.53,31.53,0,0,1,688,460.12h0a44.43,44.43,0,0,1,7.69.66c2.5.43,4.76.92,6.8,1.45s3.76,1.09,5.18,1.59S710,464.7,710.39,464.91Z" transform="translate(-151.77 -454.49)"/><path class="cls-1" d="M833.17,487.94a45.48,45.48,0,0,0-81-14.23l-1.25-5.22a3,3,0,1,0-5.9,1.42l3,12.51a.88.88,0,0,1,.05.15c0,.1.07.2.1.29l.12.26.16.26a1.77,1.77,0,0,0,.16.22,2.29,2.29,0,0,0,.21.23c.06.07.13.13.2.2l.25.18.12.09.1.05.18.1a2.46,2.46,0,0,0,.38.14l.14.05a3.07,3.07,0,0,0,.74.1h.17l.48-.06h.1l12.51-3a3,3,0,1,0-1.42-5.89l-5.57,1.33a39.4,39.4,0,0,1,69.87,11.7A12.2,12.2,0,0,0,820,497H758.59A12.13,12.13,0,1,0,745.46,512a45.46,45.46,0,0,0,81,14.21l1.25,5.24a3,3,0,0,0,5.9-1.42l-3-12.51a.69.69,0,0,1-.05-.13,2.83,2.83,0,0,0-.11-.31,3.28,3.28,0,0,0-.27-.52l-.15-.21-.21-.24a1.9,1.9,0,0,0-.21-.19l-.25-.19-.11-.09-.14-.07-.14-.08-.13,0a3.86,3.86,0,0,0-.58-.17l-.28,0h-.6l-.29,0-.13,0-12.51,3a3,3,0,0,0,1.41,5.9h0l5.57-1.34a39.41,39.41,0,0,1-69.87-11.69,12.16,12.16,0,0,0,7.06-8.16H820a12.13,12.13,0,1,0,13.14-15.07Zm-86.31,18.11a6.07,6.07,0,1,1,6.06-6.07A6.07,6.07,0,0,1,746.86,506.05Zm84.9,0a6.07,6.07,0,1,1,6.07-6.07A6.06,6.06,0,0,1,831.76,506.05Z" transform="translate(-151.77 -454.49)"/></g></g></svg>